<svg xmlns="http://www.w3.org/2000/svg" version="1.1" xmlns:xlink="http://www.w3.org/1999/xlink" xmlns:svgjs="http://svgjs.dev/svgjs" width="1000" height="1000" viewBox="0 0 1000 1000"><rect width="1000" height="1000" fill="#ffffff"></rect><g transform="matrix(0.7,0,0,0.7,149.57575757575756,282.1265587044535)"><svg viewBox="0 0 396 247" data-background-color="#ffffff" preserveAspectRatio="xMidYMid meet" height="623" width="1000" xmlns="http://www.w3.org/2000/svg" xmlns:xlink="http://www.w3.org/1999/xlink"><g id="tight-bounds" transform="matrix(1,0,0,1,0.2400000000000091,-0.09999999999999432)"><svg viewBox="0 0 395.52 247.2" height="247.2" width="395.52"><g><svg></svg></g><g><svg viewBox="0 0 395.52 247.2" height="247.2" width="395.52"><g transform="matrix(1,0,0,1,75.54432,69.72713426452978)"><svg viewBox="0 0 244.43135999999998 107.74573147094044" height="107.74573147094044" width="244.43135999999998"><g><svg viewBox="0 0 244.43135999999998 107.74573147094044" height="107.74573147094044" width="244.43135999999998"><g transform="matrix(1,0,0,1,0,54.255846989656206)"><svg viewBox="0 0 244.43135999999998 53.489884481284236" height="53.489884481284236" width="244.43135999999998"><g id="textblocktransform"><svg viewBox="0 0 244.43135999999998 53.489884481284236" height="53.489884481284236" width="244.43135999999998" id="textblock"><g><svg viewBox="0 0 244.43135999999998 53.489884481284236" height="53.489884481284236" width="244.43135999999998"><path d="M243.859 11.473C242.71 5.92 239.435 4.377 239.435 4.377 229.38-1.342 216.832-0.109 205.559 0.712 185.656 0.746 165.834 1.967 145.977 2.622 104.298 2.722 62.263 1.079 20.791 5.132 16.896 6.376-4.041 5.376 0.693 12.183 1.934 15.015 6.462 18.157 6.324 20.756 6.944 21.211 7.806 20.167 8.174 20.823 9.461 22.588 11.564 21.755 13.287 22.799 10.886 25.586 12.609 27.907 14.253 30.339 11.357 30.972 7.645 30.672 5.979 32.771 5.807 34.292 4.876 34.004 3.853 33.937 3.106 33.892 1.601 34.059 1.854 34.537 2.715 36.169-0.985 37.113 1.336 38.712-0.261 40.444 2.44 41.943 2.072 43.82 2.026 44.197 2.279 44.519 2.681 44.608 4.462 45.086 1.865 46.019 2.141 47.029 20.412 53.936 40.234 49.161 58.954 52.337 63.814 50.116 60.16 53.125 62.102 52.659 63.619 52.115 64.722 54.369 66.434 53.092 66.699 52.726 66.296 51.859 67.239 52.026 67.733 52.115 68.169 52.093 68.238 51.582 68.342 50.816 67.434 51.293 67.193 50.893 69.801 48.872 69.158 53.681 71.605 53.481 71.49 52.892 70.778 52.048 72.237 52.159 73.685 51.315 73.731 50.616 75.018 52.515 75.064 52.926 75.294 53.214 75.662 53.414 79.684 51.349 83.683 54.147 87.9 53.214 90.485 52.193 92.968 53.769 95.588 53.381 96.507 53.07 97.438 52.515 98.323 53.447 109.159 53.647 120.707 52.814 130.981 53.481 158.433 52.237 187.77 53.992 216.717 52.348 223.543 51.715 230.633 50.816 237.286 50.094 237.286 50.094 242.675 48.117 242.675 39.234S243.825 31.461 243.997 24.387C244.169 17.314 244.974 17.025 243.825 11.473Z" opacity="1" fill="#000000" data-fill-palette-color="tertiary"></path><g transform="matrix(1,0,0,1,34.46482176,16.210552)"><svg width="175.50171647999997" viewBox="3.7 -34.4 286.53000000000003 34.4" height="21.06878048128424" data-palette-color="#ffffff"><path d="M3.7 0L3.7-34.4 33.45-34.4 33.45-26.15 14.75-26.15 14.75-21.4 30.75-21.4 30.75-13.5 14.75-13.5 14.75-8.25 33.8-8.25 33.8 0 3.7 0ZM50.8-9.8L38.05-9.8 38.05-17.7 50.8-17.7 50.8-9.8ZM96.95 0L86 0 86-12.4Q86-14.7 86.17-17.13 86.34-19.55 86.55-21.2 86.75-22.85 86.8-23.3L86.8-23.3 86.59-23.3 80.25 0 71.59 0 65.2-23.25 65-23.25Q65.05-22.8 65.27-21.18 65.5-19.55 65.7-17.13 65.9-14.7 65.9-12.4L65.9-12.4 65.9 0 55.75 0 55.75-34.4 71.34-34.4 76.55-14.55 76.75-14.55 81.9-34.4 96.95-34.4 96.95 0ZM138.39 0L126.69 0 125.24-4.85 113.19-4.85 111.74 0 100.44 0 112.99-34.4 125.84-34.4 138.39 0ZM119.14-24.8L115.49-12.55 122.94-12.55 119.34-24.8 119.14-24.8ZM175.19-23.85Q175.19-20.7 173.49-18.15 171.79-15.6 168.54-14.4L168.54-14.4 176.19 0 163.79 0 157.69-12.55 153.59-12.55 153.59 0 142.54 0 142.54-34.4 163.59-34.4Q167.29-34.4 169.92-32.98 172.54-31.55 173.87-29.13 175.19-26.7 175.19-23.85L175.19-23.85ZM163.94-23.4Q163.94-24.75 163.04-25.65 162.14-26.55 160.84-26.55L160.84-26.55 153.59-26.55 153.59-20.2 160.84-20.2Q162.14-20.2 163.04-21.13 163.94-22.05 163.94-23.4L163.94-23.4ZM192.49-19.7L204.74-34.4 218.44-34.4 206.09-20.25 218.69 0 205.64 0 198.49-12.6 192.49-7.7 192.49 0 181.44 0 181.44-34.4 192.49-34.4 192.49-19.7ZM223.09 0L223.09-34.4 252.84-34.4 252.84-26.15 234.14-26.15 234.14-21.4 250.14-21.4 250.14-13.5 234.14-13.5 234.14-8.25 253.19-8.25 253.19 0 223.09 0ZM290.23-25.6L278.98-25.6 278.98 0 267.93 0 267.93-25.6 256.63-25.6 256.63-34.4 290.23-34.4 290.23-25.6Z" opacity="1" transform="matrix(1,0,0,1,0,0)" fill="#ffffff" class="wordmark-text-0" data-fill-palette-color="quaternary" id="text-0"></path></svg></g></svg></g></svg></g></svg></g><g transform="matrix(1,0,0,1,93.10092920196595,0)"><svg viewBox="0 0 58.22950159606809 49.28201356875655" height="49.28201356875655" width="58.22950159606809"><g><svg xmlns="http://www.w3.org/2000/svg" viewBox="18.499999409900223 23.289956117611673 61.890000590099774 52.38004388238833" x="0" y="0" height="49.28201356875655" width="58.22950159606809" class="icon-icon-0" data-fill-palette-color="accent" id="icon-0"><g data-name="Layer 2" fill="#096a2e" data-fill-palette-color="accent"><path d="M71 25a4.54 4.54 0 0 0-3.57-1.71h-36A4.51 4.51 0 0 0 27.92 25L18.83 36.31a1.5 1.5 0 0 0-0.33 0.94 7.41 7.41 0 0 0 5.89 7.22V67.17a1.5 1.5 0 0 0 1.5 1.5H73a1.5 1.5 0 0 0 1.5-1.5V44.47a7.41 7.41 0 0 0 5.89-7.18s0 0 0-0.06a1.49 1.49 0 0 0-0.41-1ZM53.74 65.67H27.39V44.46a7.4 7.4 0 0 0 4.39-2.77 7.38 7.38 0 0 0 11.78 0 7.36 7.36 0 0 0 10.17 1.55Zm17.78 0H56.74V43.13s0 0 0-0.05a7.36 7.36 0 0 0 10.4-1.38 7.4 7.4 0 0 0 4.39 2.77Zm1.5-24a4.4 4.4 0 0 1-4.39-4.32v-0.06h0a1.5 1.5 0 0 0-3 0 4.39 4.39 0 0 1-8.78 0.06v-0.06h0a1.5 1.5 0 0 0-3 0 4.39 4.39 0 0 1-8.78 0.06v-0.06h0a1.5 1.5 0 0 0-3 0 4.39 4.39 0 0 1-8.78 0 1.5 1.5 0 0 0-3 0 4.39 4.39 0 0 1-8.75 0.49l8.73-10.91a1.53 1.53 0 0 1 1.2-0.58h36a1.56 1.56 0 0 1 1.22 0.59l8.72 10.9A4.4 4.4 0 0 1 73 41.63Z" fill="#000000" data-fill-palette-color="accent"></path><path d="M66.81 29.44H32.56a1.5 1.5 0 0 0 0 3H66.81a1.5 1.5 0 1 0 0-3Z" fill="#000000" data-fill-palette-color="accent"></path><path d="M73 72.67H25.89a1.5 1.5 0 1 0 0 3H73a1.5 1.5 0 0 0 0-3Z" fill="#000000" data-fill-palette-color="accent"></path><circle cx="60.21" cy="53.97" r="1.5" fill="#000000" data-fill-palette-color="accent"></circle><path d="M35.29 48.31a1.5 1.5 0 0 0-2.12 0L30.45 51a1.5 1.5 0 1 0 2.12 2.12l2.72-2.72A1.5 1.5 0 0 0 35.29 48.31Z" fill="#000000" data-fill-palette-color="accent"></path><path d="M43.27 50.43a1.5 1.5 0 0 0-2.12-2.12l-7 7a1.5 1.5 0 1 0 2.12 2.12Z" fill="#000000" data-fill-palette-color="accent"></path><path d="M48.34 48.31L36.57 60.08a1.5 1.5 0 1 0 2.12 2.12L50.46 50.43a1.5 1.5 0 0 0-2.12-2.12Z" fill="#000000" data-fill-palette-color="accent"></path></g></svg></g></svg></g><g></g></svg></g></svg></g><g><path d="M90.644 64.753A122.216 122.216 0 0 1 304.876 64.753L302.976 64.753A120.316 120.316 0 0 0 92.544 64.753L90.644 64.753M90.644 182.447A122.216 122.216 0 0 0 304.876 182.447L302.976 182.447A120.316 120.316 0 0 1 92.544 182.447L90.644 182.447" fill="#000000" stroke="transparent" data-fill-palette-color="tertiary"></path></g></svg></g><defs></defs></svg><rect width="395.52" height="247.2" fill="none" stroke="none" visibility="hidden"></rect></g></svg></g></svg>